<svg xmlns="http://www.w3.org/2000/svg" viewBox="0 0 32 32">
  <defs>
    <linearGradient id="fg" x1="0" y1="0" x2="0" y2="1">
      <stop offset="0%" stop-color="#FF6B4A"/>
      <stop offset="100%" stop-color="#E53935"/>
    </linearGradient>
  </defs>
  <path fill="url(#fg)" d="M16 2c0 0 3.5 5.5 5 9 1.2 2.8 2 5.2 2 7.5C23 23.1 19.9 26 16 26S9 23.1 9 18.5c0-2.3.8-4.7 2-7.5C12.5 7.5 16 2 16 2zm0 14c-1.7 0-3 1.5-3 3.3 0 1.8 1.3 3.2 3 3.2s3-1.4 3-3.2C19 17.5 17.7 16 16 16z"/>
  <path fill="#FFB74D" opacity=".6" d="M16 6c0 0 2 3.5 3 6 .8 2 1.2 3.8 1.2 5.3 0 2.5-1.9 4.5-4.2 4.5S11.8 19.8 11.8 17.3c0-1.5.4-3.3 1.2-5.3C14 9.5 16 6 16 6z"/>
</svg>
