<svg xmlns="http://www.w3.org/2000/svg" viewBox="0 0 32 32">
  <defs>
    <linearGradient id="tg" x1="0" y1="0" x2="0" y2="1">
      <stop offset="0%" stop-color="#66BB6A"/>
      <stop offset="100%" stop-color="#2E7D32"/>
    </linearGradient>
  </defs>
  <path fill="url(#tg)" d="M16 3C16 3 10 8 10 14c0 2.5 1.2 4.7 3 6.2V24c0 1.7 1.3 3 3 3s3-1.3 3-3v-3.8c1.8-1.5 3-3.7 3-6.2C22 8 16 3 16 3z"/>
  <path fill="#A5D6A7" opacity=".5" d="M16 6c0 0-4 4-4 8.5 0 1.8.7 3.4 1.8 4.6V22c0 1.2.9 2.2 2.2 2.2s2.2-1 2.2-2.2v-2.9C19.3 17.9 20 16.3 20 14.5 20 10 16 6 16 6z"/>
  <circle cx="16" cy="14" r="2.5" fill="#C8E6C9" opacity=".7"/>
</svg>
